<svg xmlns="http://www.w3.org/2000/svg" viewBox="0 0 64 64" fill="none">
  <defs>
    <linearGradient id="bg" x1="8" y1="6" x2="56" y2="58" gradientUnits="userSpaceOnUse">
      <stop stop-color="#101827"/>
      <stop offset="1" stop-color="#1c2f25"/>
    </linearGradient>
    <linearGradient id="pin" x1="32" y1="10" x2="32" y2="54" gradientUnits="userSpaceOnUse">
      <stop stop-color="#7cf29a"/>
      <stop offset="1" stop-color="#38c172"/>
    </linearGradient>
  </defs>
  <rect x="4" y="4" width="56" height="56" rx="14" fill="url(#bg)"/>
  <path d="M32 10c-8.837 0-16 7.163-16 16 0 11.9 13.625 24.406 15.157 25.782a1.25 1.25 0 0 0 1.686 0C34.375 50.406 48 37.9 48 26c0-8.837-7.163-16-16-16Z" fill="url(#pin)"/>
  <circle cx="32" cy="26" r="7.5" fill="#101827"/>
  <path d="M27.4 27.3c.9 3.2 3.7 5.3 7.1 5.5M26.4 22.6c1.4-1.8 3.2-2.8 5.6-2.9m3.4 1.1c1.5.5 2.6 1.3 3.6 2.7" stroke="#7cf29a" stroke-linecap="round" stroke-width="2.4"/>
</svg>
